{
    "asset" : {
        "generator" : "Khronos glTF Blender I/O v3.4.50",
        "version" : "2.0"
    },
    "scene" : 0,
    "scenes" : [
        {
            "name" : "Scene",
            "nodes" : [
                0
            ]
        }
    ],
    "nodes" : [
        {
            "mesh" : 0,
            "name" : "Clifftile_straight2_mesh"
        }
    ],
    "meshes" : [
        {
            "name" : "Clifftile straight2_mesh.001",
            "primitives" : [
                {
                    "attributes" : {
                        "POSITION" : 0,
                        "TEXCOORD_0" : 1,
                        "TEXCOORD_1" : 2,
                        "TEXCOORD_2" : 3,
                        "NORMAL" : 4
                    },
                    "indices" : 5
                }
            ]
        }
    ],
    "accessors" : [
        {
            "bufferView" : 0,
            "componentType" : 5126,
            "count" : 3906,
            "max" : [
                6.000000476837158,
                -0.01140749454498291,
                1.6626801490783691
            ],
            "min" : [
                -2.384185791015625e-07,
                -4.571062088012695,
                -0.05459729582071304
            ],
            "type" : "VEC3"
        },
        {
            "bufferView" : 1,
            "componentType" : 5126,
            "count" : 3906,
            "type" : "VEC2"
        },
        {
            "bufferView" : 2,
            "componentType" : 5126,
            "count" : 3906,
            "type" : "VEC2"
        },
        {
            "bufferView" : 3,
            "componentType" : 5126,
            "count" : 3906,
            "type" : "VEC2"
        },
        {
            "bufferView" : 4,
            "componentType" : 5126,
            "count" : 3906,
            "type" : "VEC3"
        },
        {
            "bufferView" : 5,
            "componentType" : 5123,
            "count" : 5934,
            "type" : "SCALAR"
        }
    ],
    "bufferViews" : [
        {
            "buffer" : 0,
            "byteLength" : 46872,
            "byteOffset" : 0,
            "target" : 34962
        },
        {
            "buffer" : 0,
            "byteLength" : 31248,
            "byteOffset" : 46872,
            "target" : 34962
        },
        {
            "buffer" : 0,
            "byteLength" : 31248,
            "byteOffset" : 78120,
            "target" : 34962
        },
        {
            "buffer" : 0,
            "byteLength" : 31248,
            "byteOffset" : 109368,
            "target" : 34962
        },
        {
            "buffer" : 0,
            "byteLength" : 46872,
            "byteOffset" : 140616,
            "target" : 34962
        },
        {
            "buffer" : 0,
            "byteLength" : 11868,
            "byteOffset" : 187488,
            "target" : 34963
        }
    ],
    "buffers" : [
        {
            "byteLength" : 199356,
            "uri" : "data:application/octet-stream;base64,"
        }
    ]
}
